# xmcd
#
# Track frame offsets:
#   150
#   16681
#   30624
#   52343
#   64461
#   78152
#   92347
#   105719
#   124095
#   136686
#   156862
#   170567
#   186795
#   196320
#
# Disc length: 2875 seconds
#
# Revision: 1
# Processed by: cddbd v1.5.1PL0 Copyright (c) Steve Scherf et al.
# Submitted via: Media_Universe 3.0
#
DISCID=b30b390e
DTITLE=Dr.Feelgood - Chess Masters
DYEAR=2000
DGENRE=Blues
TTITLE0=Nadine
TTITLE1=Date Bait
TTITLE2=You Gotta Help Me
TTITLE3=Talkin' About You
TTITLE4=The Walk
TTITLE5=29 Ways
TTITLE6=Who Do You Love
TTITLE7=If Walls Could Talk
TTITLE8=Send For The Doctor
TTITLE9=Killing Floor
TTITLE10=Suzie Q
TTITLE11=Don't Start Me Talking
TTITLE12=Gimme One More Shot
TTITLE13=Hoochie Coochie Man
EXTD=
EXTT0=
EXTT1=
EXTT2=
EXTT3=
EXTT4=
EXTT5=
EXTT6=
EXTT7=
EXTT8=
EXTT9=
EXTT10=
EXTT11=
EXTT12=
EXTT13=
PLAYORDER=
